<svg width="12" height="18" viewBox="0 0 12 18" fill="none" xmlns="http://www.w3.org/2000/svg">
<path fill-rule="evenodd" clip-rule="evenodd" d="M2.20024 0C1.64107 0 1.09064 0.201675 0.673187 0.582022C0.253197 0.964914 0 1.50229 0 2.08123C0 2.66018 0.253102 3.19747 0.673092 3.58036L6.28019 8.69064C6.46671 8.86063 6.46671 9.15417 6.28019 9.32415L0.667601 14.4394L0.662199 14.4445C0.25322 14.8305 0.0108525 15.3649 0.0163097 15.9373C0.0217669 16.5096 0.274136 17.0392 0.689456 17.4178C1.10224 17.794 1.64528 17.9956 2.19829 17.9999C2.75128 18.0043 3.29734 17.8114 3.71635 17.4426L3.72191 17.4377L11.327 10.5064C11.747 10.1235 12 9.58634 12 9.0074C12 8.42845 11.7469 7.89116 11.3269 7.50827L3.72729 0.582022C3.30984 0.201675 2.7594 0 2.20024 0Z" fill="white"/>
</svg>
