<svg width="32" height="32" viewBox="0 0 32 32" fill="none" xmlns="http://www.w3.org/2000/svg">
<path d="M10.5 5.6875C10.5 5.50516 10.4276 5.3303 10.2986 5.20136C10.1697 5.07243 9.99484 5 9.8125 5C9.63016 5 9.4553 5.07243 9.32636 5.20136C9.19743 5.3303 9.125 5.50516 9.125 5.6875V6.375H7.75C7.02065 6.375 6.32118 6.66473 5.80546 7.18046C5.28973 7.69618 5 8.39565 5 9.125L5 10.5H27V9.125C27 8.39565 26.7103 7.69618 26.1945 7.18046C25.6788 6.66473 24.9793 6.375 24.25 6.375H22.875V5.6875C22.875 5.50516 22.8026 5.3303 22.6736 5.20136C22.5447 5.07243 22.3698 5 22.1875 5C22.0052 5 21.8303 5.07243 21.7014 5.20136C21.5724 5.3303 21.5 5.50516 21.5 5.6875V6.375H10.5V5.6875ZM17.9278 19.0883C18.7871 19.0883 19.5558 18.4227 19.5558 17.4657C19.5558 16.3217 18.8311 15.7745 17.9607 15.7745C17.155 15.7745 16.3548 16.3066 16.3548 17.4382C16.3548 18.5616 17.1014 19.0883 17.9278 19.0883Z" fill="#00A4F4"/>
<path d="M27 24.25V11.875H5V24.25C5 24.9793 5.28973 25.6788 5.80546 26.1945C6.32118 26.7103 7.02065 27 7.75 27H24.25C24.9793 27 25.6788 26.7103 26.1945 26.1945C26.7103 25.6788 27 24.9793 27 24.25ZM17.837 22.5863C16.3108 22.5863 15.56 21.5316 15.4954 20.6516H16.4345C16.4936 21.1604 16.9666 21.7791 17.8796 21.7791C19.0401 21.7791 19.6685 20.6131 19.674 18.8036H19.6369C19.4265 19.3729 18.761 19.8899 17.7353 19.8899C16.5638 19.8899 15.4307 19.0511 15.4307 17.4561C15.4307 15.8928 16.6284 14.9688 17.9016 14.9688C19.5131 14.9688 20.587 15.978 20.587 18.6373C20.587 21.1191 19.5668 22.5849 17.837 22.5849V22.5863ZM13.8632 15.1131V22.4446H12.9338V16.1086H12.9172C12.5185 16.3231 11.7031 16.8236 11.1875 17.177V16.22C11.7669 15.8157 12.3697 15.4461 12.9929 15.1131H13.8632Z" fill="#00A4F4"/>
</svg>
