<svg width="45" height="44" viewBox="0 0 45 44" fill="none" xmlns="http://www.w3.org/2000/svg">
<g opacity="0.7">
<path d="M10.3279 10.094C11.5103 11.0186 11.9582 10.9533 14.1906 10.8101L35.2358 9.59903C35.6837 9.59903 35.311 9.16937 35.1605 9.09718L31.6645 6.67388C30.9993 6.17203 30.1035 5.60602 28.3919 5.74237L8.01913 7.17458C7.27264 7.23989 7.12334 7.59852 7.42194 7.88496L10.3279 10.094ZM11.5904 14.8031V36.0411C11.5904 37.1812 12.1816 37.6108 13.5193 37.5387L36.6487 36.2554C37.9865 36.1832 38.1417 35.4018 38.1417 34.4714V13.3766C38.1417 12.4451 37.7679 11.9502 36.9473 12.0223L12.78 13.3766C11.8842 13.4488 11.5916 13.8716 11.5916 14.7974L11.5904 14.8031ZM34.4212 15.9363C34.5705 16.5814 34.4212 17.2196 33.7487 17.2975L32.6356 17.5129V33.1893C31.6645 33.6912 30.7759 33.9776 30.0354 33.9776C28.841 33.9776 28.5424 33.619 27.6526 32.5511L20.362 21.5712V32.1936L22.6696 32.6955C22.6696 32.6955 22.6696 33.9787 20.8099 33.9787L15.6776 34.2652C15.5283 33.9787 15.6776 33.2626 16.2007 33.1251L17.5384 32.7665V18.7251L15.6788 18.5819C15.5295 17.9368 15.9033 17.0122 16.9412 16.9411L22.4462 16.5825L30.0354 27.7056V17.8646L28.1005 17.6492C27.9512 16.8678 28.5424 16.2949 29.2889 16.2285L34.4212 15.9363ZM6.30876 5.24854L27.5033 3.75102C30.1035 3.53561 30.7759 3.67883 32.411 4.81888L39.1796 9.38363C40.2928 10.165 40.6667 10.3804 40.6667 11.234V36.2565C40.6667 37.8262 40.0695 38.7509 37.9912 38.8941L13.3688 40.3206C11.8137 40.3928 11.0672 40.1774 10.2455 39.1805L5.26247 32.9739C4.37265 31.8339 4 30.9803 4 29.9846V7.74403C4 6.46076 4.5972 5.39291 6.30757 5.24969L6.30876 5.24854Z" fill="black"/>
</g>
</svg>
