<svg width="126" height="124" viewBox="0 0 126 124" fill="none" xmlns="http://www.w3.org/2000/svg">
<g opacity="0.7">
<path d="M85.2397 10.7977C82.7587 12.0339 79.746 11.1509 78.3283 8.67848C77.0878 6.20603 77.9739 3.20377 80.4549 1.79094C81.341 1.43773 82.227 1.08452 83.1131 1.26112C84.1764 1.61433 85.0625 1.96754 85.9486 2.32075C86.4802 2.67395 87.0118 3.20377 87.3663 3.91018C88.6068 6.55923 87.7207 9.56149 85.2397 10.7977Z" fill="url(#paint0_linear_76_334)"/>
<path d="M87.5438 25.8098C86.3033 23.3373 87.1894 20.3351 89.6704 18.9222C92.1514 17.686 95.1641 18.569 96.5818 21.0415C97.8223 23.5139 96.9362 26.5162 94.4552 27.929C91.9742 29.3418 88.7843 28.2822 87.5438 25.8098Z" fill="url(#paint1_linear_76_334)"/>
<path d="M96.7594 42.9389C95.5189 40.4665 96.4049 37.4642 98.8859 36.0514C101.367 34.8152 104.38 35.6982 105.797 38.1707C107.038 40.6431 106.152 43.6454 103.671 45.0582C101.013 46.2944 97.9999 45.4114 96.7594 42.9389Z" fill="url(#paint2_linear_76_334)"/>
<path d="M105.975 60.0698C104.734 57.5974 105.62 54.5951 108.101 53.1823C110.583 51.9461 113.595 52.8291 115.013 55.3015C116.253 57.774 115.367 60.7763 112.886 62.1891C110.228 63.4253 107.215 62.5423 105.975 60.0698Z" fill="url(#paint3_linear_76_334)"/>
<path d="M115.013 77.0248C113.773 74.5524 114.659 71.5501 117.14 70.1373C119.621 68.9011 122.633 69.7841 124.051 72.2565C124.405 72.9629 124.583 73.6693 124.583 74.1992C124.405 75.2588 124.051 76.1418 123.874 77.2014C123.342 77.9078 122.81 78.6143 121.924 78.9675C119.443 80.3803 116.431 79.4973 115.013 77.0248Z" fill="url(#paint4_linear_76_334)"/>
<path d="M98.1766 9.20753C98.1766 9.03093 97.9993 8.85433 97.9993 8.85433C99.4171 9.73734 100.835 10.797 102.253 11.8566C100.658 11.68 99.0626 10.797 98.1766 9.20753Z" fill="url(#paint5_linear_76_334)"/>
<path d="M114.303 28.2821C111.822 29.5183 108.81 28.6353 107.392 26.1629C106.152 23.6904 107.038 20.6881 109.519 19.2753C109.696 19.0987 109.873 19.0987 110.05 19.0987C112.177 21.5712 114.126 24.0434 115.898 26.8691C115.544 27.3989 114.835 27.9289 114.303 28.2821Z" fill="url(#paint6_linear_76_334)"/>
<path d="M123.341 45.4125C120.86 46.6487 117.848 45.7659 116.43 43.2934C115.19 40.821 116.076 37.8185 118.557 36.4057C119.265 36.0525 119.974 35.8761 120.683 35.8761C121.924 38.8783 122.987 41.8806 123.873 45.0594C123.696 45.236 123.519 45.2359 123.341 45.4125Z" fill="url(#paint7_linear_76_334)"/>
<path d="M125.823 55.6543C126 57.4203 126 59.1863 126 60.7758C126 60.5992 125.823 60.4226 125.823 60.4226C124.937 58.8331 124.937 57.0671 125.823 55.6543Z" fill="url(#paint8_linear_76_334)"/>
<path d="M16.8354 25.4555C15.0633 26.5151 12.7595 26.1619 11.3417 24.9257C13.2911 22.2766 15.4177 19.6275 17.7215 17.155C18.2531 17.5082 18.6076 18.0381 18.962 18.5679C20.2025 21.0404 19.3164 24.2192 16.8354 25.4555Z" fill="url(#paint9_linear_76_334)"/>
<path d="M27.9993 35.6992C29.2398 38.1717 28.3537 41.1739 25.8727 42.5868C23.3917 43.823 20.379 42.94 18.9613 40.4675C17.7208 37.9951 18.6069 34.9928 21.0879 33.58C23.5689 32.3438 26.7588 33.2268 27.9993 35.6992Z" fill="url(#paint10_linear_76_334)"/>
<path d="M37.2148 52.8301C38.4553 55.3026 37.5692 58.3048 35.0882 59.7177C32.6072 60.9539 29.5946 60.0709 28.1768 57.5984C26.9363 55.126 27.8224 52.1237 30.3034 50.7109C32.7844 49.4747 35.7971 50.3577 37.2148 52.8301Z" fill="url(#paint11_linear_76_334)"/>
<path d="M46.4303 69.7834C47.6708 72.2558 46.7847 75.2581 44.3037 76.6709C41.8227 77.9072 38.8101 77.0241 37.3923 74.5517C36.1518 72.0792 37.0379 69.077 39.5189 67.6641C41.9999 66.4279 45.0126 67.3109 46.4303 69.7834Z" fill="url(#paint12_linear_76_334)"/>
<path d="M55.6458 86.9143C56.8863 89.3867 56.0003 92.389 53.5193 93.8018C51.0383 95.038 48.0256 94.155 46.6079 91.6826C45.3674 89.2101 46.2534 86.2079 48.7345 84.795C51.2155 83.5588 54.2281 84.4418 55.6458 86.9143Z" fill="url(#paint13_linear_76_334)"/>
<path d="M64.6831 104.045C65.9236 106.518 65.0375 109.52 62.5565 110.933C60.0755 112.169 57.0629 111.286 55.6451 108.813C54.4046 106.341 55.2907 103.339 57.7717 101.926C60.4299 100.69 63.4426 101.573 64.6831 104.045Z" fill="url(#paint14_linear_76_334)"/>
<path d="M67.1646 119.055C69.6456 117.819 72.6583 118.702 74.076 121.174C74.4305 121.704 74.6077 122.411 74.6077 122.94C71.2406 123.647 67.8735 123.823 64.5064 124C64.3292 121.881 65.2153 119.938 67.1646 119.055Z" fill="url(#paint15_linear_76_334)"/>
<path d="M38.6322 18.922C39.8727 21.3945 38.9866 24.3967 36.5056 25.8096C34.0246 27.0458 31.0119 26.1628 29.5942 23.6903C28.3537 21.2179 29.2398 18.2156 31.7208 16.8028C34.379 15.5666 37.3917 16.6262 38.6322 18.922Z" fill="url(#paint16_linear_76_334)"/>
<path d="M38.988 40.8211C37.7475 38.3486 38.6335 35.3464 41.1146 33.9335C43.5956 32.6973 46.6082 33.5803 48.0259 36.0528C49.2664 38.5252 48.3804 41.5275 45.8994 42.9403C43.4184 44.1766 40.2285 43.2935 38.988 40.8211Z" fill="url(#paint17_linear_76_334)"/>
<path d="M48.2018 57.9503C46.9613 55.4778 47.8473 52.4755 50.3283 51.0627C52.8094 49.8265 55.822 50.7095 57.2397 53.182C58.4802 55.6544 57.5942 58.6567 55.1132 60.0695C52.4549 61.3057 49.4423 60.4227 48.2018 57.9503Z" fill="url(#paint18_linear_76_334)"/>
<path d="M57.4173 74.9052C56.1768 72.4328 57.0629 69.4305 59.5439 68.0177C62.0249 66.7815 65.0375 67.6645 66.4553 70.1369C67.6958 72.6094 66.8097 75.6116 64.3287 77.0245C61.6704 78.2607 58.6578 77.3777 57.4173 74.9052Z" fill="url(#paint19_linear_76_334)"/>
<path d="M75.4943 87.2678C76.7348 89.7403 75.8487 92.7425 73.3677 94.1554C70.8867 95.3916 67.874 94.5086 66.4563 92.0361C65.2158 89.5637 66.1019 86.5614 68.5829 85.1486C71.0639 83.9124 74.0765 84.7954 75.4943 87.2678Z" fill="url(#paint20_linear_76_334)"/>
<path d="M84.5315 104.397C85.772 106.869 84.886 109.872 82.4049 111.285C79.9239 112.521 76.9113 111.638 75.4936 109.165C74.2531 106.693 75.1391 103.691 77.6201 102.278C80.2784 101.042 83.291 101.925 84.5315 104.397Z" fill="url(#paint21_linear_76_334)"/>
<path d="M6.55695 69.0764C7.79745 71.5489 6.91138 74.5511 4.43037 75.964C3.5443 76.4938 2.481 76.6704 1.59492 76.4938C0.708847 73.3149 0.177216 70.136 0 66.9572C2.48101 65.7209 5.31644 66.7806 6.55695 69.0764Z" fill="url(#paint22_linear_76_334)"/>
<path d="M9.03761 84.0879C11.5186 82.8517 14.5313 83.7347 15.949 86.2072C17.1895 88.6796 16.3034 91.6819 13.8224 93.0947C12.0503 94.1543 9.74647 93.8011 8.32875 92.5649C7.97432 92.0351 7.61989 91.3287 7.26546 90.7989C6.91103 90.2691 6.73382 89.5626 6.37939 89.0328C6.20217 87.0902 7.08824 85.1476 9.03761 84.0879Z" fill="url(#paint23_linear_76_334)"/>
<path d="M24.9882 103.162C26.2287 105.458 25.3426 108.46 23.0388 109.873C20.5578 107.93 18.254 105.635 15.9502 103.162C16.4819 102.279 17.1907 101.573 18.0768 101.043C20.5578 99.8067 23.7477 100.69 24.9882 103.162Z" fill="url(#paint24_linear_76_334)"/>
<path d="M6.026 42.0565C4.96272 42.5863 3.54499 42.7629 2.4817 42.5863C3.54499 39.4074 4.60828 36.4052 6.20322 33.4029C6.91207 33.9327 7.62093 34.4625 8.15257 35.3456C9.39308 37.818 8.50701 40.8203 6.026 42.0565Z" fill="url(#paint25_linear_76_334)"/>
<path d="M17.3664 52.477C18.6069 54.9495 17.7208 57.9517 15.2398 59.3645C12.7588 60.6008 9.74613 59.7178 8.32841 57.2453C6.91069 54.7728 7.97398 51.7706 10.455 50.3578C12.936 48.9449 15.9486 50.0046 17.3664 52.477Z" fill="url(#paint26_linear_76_334)"/>
<path d="M26.5819 69.4298C27.8224 71.9023 26.9363 74.9045 24.4553 76.3174C21.9743 77.5536 18.9617 76.6706 17.5439 74.1981C16.3034 71.7257 17.1895 68.7234 19.6705 67.3106C22.1515 66.0744 25.1642 66.9574 26.5819 69.4298Z" fill="url(#paint27_linear_76_334)"/>
<path d="M35.6209 86.5607C36.8614 89.0332 35.9753 92.0354 33.4943 93.4483C31.0133 94.6845 28.0006 93.8015 26.5829 91.329C25.3424 88.8566 26.2285 85.8543 28.7095 84.4415C31.3677 83.2053 34.3804 84.0883 35.6209 86.5607Z" fill="url(#paint28_linear_76_334)"/>
<path d="M44.8347 103.516C46.0752 105.988 45.1891 108.991 42.7081 110.403C40.2271 111.64 37.2144 110.757 35.7967 108.284C34.5562 105.812 35.4423 102.809 37.9233 101.397C40.4043 100.16 43.5942 101.22 44.8347 103.516Z" fill="url(#paint29_linear_76_334)"/>
<path d="M54.0504 120.645C54.582 121.528 54.7592 122.411 54.582 123.294C51.215 122.941 48.0251 122.234 44.8352 121.175C45.1896 120.115 46.0757 119.055 47.139 118.526C49.62 117.289 52.8099 118.172 54.0504 120.645Z" fill="url(#paint30_linear_76_334)"/>
<path d="M47.3169 9.20753C44.8359 10.4438 41.8233 9.56074 40.4055 7.08829C39.5195 5.49885 39.6967 3.73282 40.4055 2.14338C42.5321 1.26037 44.6587 0.553956 46.9625 0.024145C47.8486 0.553956 48.7346 1.26037 49.2663 2.14338C50.684 4.79244 49.7979 7.7947 47.3169 9.20753Z" fill="url(#paint31_linear_76_334)"/>
<path d="M49.6209 24.2196C48.3804 21.7472 49.2664 18.7449 51.7475 17.3321C54.2285 16.0959 57.2411 16.9789 58.6588 19.4513C59.8993 21.9238 59.0133 24.926 56.5323 26.3388C54.0512 27.5751 51.0386 26.5154 49.6209 24.2196Z" fill="url(#paint32_linear_76_334)"/>
<path d="M58.8347 41.1729C57.5942 38.7005 58.4802 35.6982 60.9612 34.2854C63.4422 33.0491 66.4549 33.9322 67.8726 36.4046C69.1131 38.8771 68.2271 41.8793 65.746 43.2922C63.265 44.5284 60.2524 43.6454 58.8347 41.1729Z" fill="url(#paint33_linear_76_334)"/>
<path d="M68.0502 58.3038C66.8097 55.8314 67.6958 52.8291 70.1768 51.4163C72.6578 50.18 75.6704 51.0631 77.0882 53.5355C78.3287 56.008 77.4426 59.0102 74.9616 60.423C72.4806 61.6593 69.2907 60.7763 68.0502 58.3038Z" fill="url(#paint34_linear_76_334)"/>
<path d="M77.2657 75.2588C76.0252 72.7863 76.9113 69.7841 79.3923 68.3712C81.8733 67.135 84.886 68.018 86.3037 70.4905C87.5442 72.9629 86.6581 75.9652 84.1771 77.378C81.5189 78.7909 78.5062 77.7312 77.2657 75.2588Z" fill="url(#paint35_linear_76_334)"/>
<path d="M86.303 92.388C85.0625 89.9155 85.9486 86.9132 88.4296 85.5004C90.9106 84.2642 93.9232 85.1472 95.3409 87.6197C96.5814 90.0921 95.6954 93.0944 93.2144 94.5072C90.7334 95.7434 87.7207 94.8604 86.303 92.388Z" fill="url(#paint36_linear_76_334)"/>
<path d="M95.5187 109.519C94.2782 107.046 95.1643 104.044 97.6453 102.631C100.126 101.395 103.139 102.278 104.557 104.751C105.088 105.81 105.266 106.87 105.088 107.929C103.493 109.342 101.544 110.932 99.7718 112.168C97.9997 111.991 96.4048 111.108 95.5187 109.519Z" fill="url(#paint37_linear_76_334)"/>
<path d="M60.4303 7.44231C59.1898 4.96985 60.0759 1.96759 62.5569 0.55477C65.0379 -0.681455 68.0505 0.201565 69.4683 2.67401C70.7088 5.14646 69.8227 8.14874 67.3417 9.56157C64.6834 10.7978 61.6708 9.91476 60.4303 7.44231Z" fill="url(#paint38_linear_76_334)"/>
<path d="M69.4676 24.5732C68.2271 22.1007 69.1131 19.0985 71.5941 17.6856C74.0751 16.4495 77.0878 17.3325 78.5055 19.8049C79.746 22.2773 78.86 25.2796 76.3789 26.6924C73.8979 27.9286 70.8853 27.0456 69.4676 24.5732Z" fill="url(#paint39_linear_76_334)"/>
<path d="M78.6831 41.5265C77.4426 39.054 78.3287 36.0518 80.8097 34.6389C83.2907 33.4027 86.3033 34.2857 87.721 36.7582C88.9616 39.2306 88.0755 42.2329 85.5945 43.6457C83.1135 44.8819 80.1008 43.9989 78.6831 41.5265Z" fill="url(#paint40_linear_76_334)"/>
<path d="M87.8986 58.6574C86.6581 56.1849 87.5442 53.1826 90.0252 51.7698C92.5062 50.5336 95.5189 51.4166 96.9366 53.8891C98.1771 56.3615 97.291 59.3638 94.81 60.7766C92.329 62.0128 89.1391 61.1298 87.8986 58.6574Z" fill="url(#paint41_linear_76_334)"/>
<path d="M97.1141 75.7882C95.8736 73.3158 96.7597 70.3135 99.2407 68.9007C101.722 67.6645 104.734 68.5475 106.152 71.0199C107.393 73.4924 106.507 76.4947 104.026 77.9075C101.545 79.1437 98.3546 78.0841 97.1141 75.7882Z" fill="url(#paint42_linear_76_334)"/>
<path d="M106.33 92.7415C105.089 90.2691 105.975 87.2668 108.456 85.854C110.937 84.6177 113.95 85.5008 115.368 87.9732C116.608 90.4457 115.722 93.4479 113.241 94.8608C110.583 96.097 107.57 95.214 106.33 92.7415Z" fill="url(#paint43_linear_76_334)"/>
</g>
<defs>
<linearGradient id="paint0_linear_76_334" x1="102.893" y1="31" x2="22.8865" y2="43.4397" gradientUnits="userSpaceOnUse">
<stop stop-color="#0179B4"/>
<stop offset="0.954688" stop-color="#88D8FF"/>
</linearGradient>
<linearGradient id="paint1_linear_76_334" x1="102.893" y1="31" x2="22.8865" y2="43.4397" gradientUnits="userSpaceOnUse">
<stop stop-color="#0179B4"/>
<stop offset="0.954688" stop-color="#88D8FF"/>
</linearGradient>
<linearGradient id="paint2_linear_76_334" x1="102.893" y1="31" x2="22.8865" y2="43.4397" gradientUnits="userSpaceOnUse">
<stop stop-color="#0179B4"/>
<stop offset="0.954688" stop-color="#88D8FF"/>
</linearGradient>
<linearGradient id="paint3_linear_76_334" x1="102.893" y1="31" x2="22.8865" y2="43.4397" gradientUnits="userSpaceOnUse">
<stop stop-color="#0179B4"/>
<stop offset="0.954688" stop-color="#88D8FF"/>
</linearGradient>
<linearGradient id="paint4_linear_76_334" x1="102.893" y1="31" x2="22.8865" y2="43.4397" gradientUnits="userSpaceOnUse">
<stop stop-color="#0179B4"/>
<stop offset="0.954688" stop-color="#88D8FF"/>
</linearGradient>
<linearGradient id="paint5_linear_76_334" x1="102.893" y1="31" x2="22.8865" y2="43.4397" gradientUnits="userSpaceOnUse">
<stop stop-color="#0179B4"/>
<stop offset="0.954688" stop-color="#88D8FF"/>
</linearGradient>
<linearGradient id="paint6_linear_76_334" x1="102.893" y1="31" x2="22.8865" y2="43.4397" gradientUnits="userSpaceOnUse">
<stop stop-color="#0179B4"/>
<stop offset="0.954688" stop-color="#88D8FF"/>
</linearGradient>
<linearGradient id="paint7_linear_76_334" x1="102.893" y1="31" x2="22.8865" y2="43.4397" gradientUnits="userSpaceOnUse">
<stop stop-color="#0179B4"/>
<stop offset="0.954688" stop-color="#88D8FF"/>
</linearGradient>
<linearGradient id="paint8_linear_76_334" x1="102.893" y1="31" x2="22.8865" y2="43.4397" gradientUnits="userSpaceOnUse">
<stop stop-color="#0179B4"/>
<stop offset="0.954688" stop-color="#88D8FF"/>
</linearGradient>
<linearGradient id="paint9_linear_76_334" x1="102.893" y1="31" x2="22.8865" y2="43.4397" gradientUnits="userSpaceOnUse">
<stop stop-color="#0179B4"/>
<stop offset="0.954688" stop-color="#88D8FF"/>
</linearGradient>
<linearGradient id="paint10_linear_76_334" x1="102.893" y1="31" x2="22.8865" y2="43.4397" gradientUnits="userSpaceOnUse">
<stop stop-color="#0179B4"/>
<stop offset="0.954688" stop-color="#88D8FF"/>
</linearGradient>
<linearGradient id="paint11_linear_76_334" x1="102.893" y1="31" x2="22.8865" y2="43.4397" gradientUnits="userSpaceOnUse">
<stop stop-color="#0179B4"/>
<stop offset="0.954688" stop-color="#88D8FF"/>
</linearGradient>
<linearGradient id="paint12_linear_76_334" x1="102.893" y1="31" x2="22.8865" y2="43.4397" gradientUnits="userSpaceOnUse">
<stop stop-color="#0179B4"/>
<stop offset="0.954688" stop-color="#88D8FF"/>
</linearGradient>
<linearGradient id="paint13_linear_76_334" x1="102.893" y1="31" x2="22.8865" y2="43.4397" gradientUnits="userSpaceOnUse">
<stop stop-color="#0179B4"/>
<stop offset="0.954688" stop-color="#88D8FF"/>
</linearGradient>
<linearGradient id="paint14_linear_76_334" x1="102.893" y1="31" x2="22.8865" y2="43.4397" gradientUnits="userSpaceOnUse">
<stop stop-color="#0179B4"/>
<stop offset="0.954688" stop-color="#88D8FF"/>
</linearGradient>
<linearGradient id="paint15_linear_76_334" x1="102.893" y1="31" x2="22.8865" y2="43.4397" gradientUnits="userSpaceOnUse">
<stop stop-color="#0179B4"/>
<stop offset="0.954688" stop-color="#88D8FF"/>
</linearGradient>
<linearGradient id="paint16_linear_76_334" x1="102.893" y1="31" x2="22.8865" y2="43.4397" gradientUnits="userSpaceOnUse">
<stop stop-color="#0179B4"/>
<stop offset="0.954688" stop-color="#88D8FF"/>
</linearGradient>
<linearGradient id="paint17_linear_76_334" x1="102.893" y1="31" x2="22.8865" y2="43.4397" gradientUnits="userSpaceOnUse">
<stop stop-color="#0179B4"/>
<stop offset="0.954688" stop-color="#88D8FF"/>
</linearGradient>
<linearGradient id="paint18_linear_76_334" x1="102.893" y1="31" x2="22.8865" y2="43.4397" gradientUnits="userSpaceOnUse">
<stop stop-color="#0179B4"/>
<stop offset="0.954688" stop-color="#88D8FF"/>
</linearGradient>
<linearGradient id="paint19_linear_76_334" x1="102.893" y1="31" x2="22.8865" y2="43.4397" gradientUnits="userSpaceOnUse">
<stop stop-color="#0179B4"/>
<stop offset="0.954688" stop-color="#88D8FF"/>
</linearGradient>
<linearGradient id="paint20_linear_76_334" x1="102.893" y1="31" x2="22.8865" y2="43.4397" gradientUnits="userSpaceOnUse">
<stop stop-color="#0179B4"/>
<stop offset="0.954688" stop-color="#88D8FF"/>
</linearGradient>
<linearGradient id="paint21_linear_76_334" x1="102.893" y1="31" x2="22.8865" y2="43.4397" gradientUnits="userSpaceOnUse">
<stop stop-color="#0179B4"/>
<stop offset="0.954688" stop-color="#88D8FF"/>
</linearGradient>
<linearGradient id="paint22_linear_76_334" x1="102.893" y1="31" x2="22.8865" y2="43.4397" gradientUnits="userSpaceOnUse">
<stop stop-color="#0179B4"/>
<stop offset="0.954688" stop-color="#88D8FF"/>
</linearGradient>
<linearGradient id="paint23_linear_76_334" x1="102.893" y1="31" x2="22.8865" y2="43.4397" gradientUnits="userSpaceOnUse">
<stop stop-color="#0179B4"/>
<stop offset="0.954688" stop-color="#88D8FF"/>
</linearGradient>
<linearGradient id="paint24_linear_76_334" x1="102.893" y1="31" x2="22.8865" y2="43.4397" gradientUnits="userSpaceOnUse">
<stop stop-color="#0179B4"/>
<stop offset="0.954688" stop-color="#88D8FF"/>
</linearGradient>
<linearGradient id="paint25_linear_76_334" x1="102.893" y1="31" x2="22.8865" y2="43.4397" gradientUnits="userSpaceOnUse">
<stop stop-color="#0179B4"/>
<stop offset="0.954688" stop-color="#88D8FF"/>
</linearGradient>
<linearGradient id="paint26_linear_76_334" x1="102.893" y1="31" x2="22.8865" y2="43.4397" gradientUnits="userSpaceOnUse">
<stop stop-color="#0179B4"/>
<stop offset="0.954688" stop-color="#88D8FF"/>
</linearGradient>
<linearGradient id="paint27_linear_76_334" x1="102.893" y1="31" x2="22.8865" y2="43.4397" gradientUnits="userSpaceOnUse">
<stop stop-color="#0179B4"/>
<stop offset="0.954688" stop-color="#88D8FF"/>
</linearGradient>
<linearGradient id="paint28_linear_76_334" x1="102.893" y1="31" x2="22.8865" y2="43.4397" gradientUnits="userSpaceOnUse">
<stop stop-color="#0179B4"/>
<stop offset="0.954688" stop-color="#88D8FF"/>
</linearGradient>
<linearGradient id="paint29_linear_76_334" x1="102.893" y1="31" x2="22.8865" y2="43.4397" gradientUnits="userSpaceOnUse">
<stop stop-color="#0179B4"/>
<stop offset="0.954688" stop-color="#88D8FF"/>
</linearGradient>
<linearGradient id="paint30_linear_76_334" x1="102.893" y1="31" x2="22.8865" y2="43.4397" gradientUnits="userSpaceOnUse">
<stop stop-color="#0179B4"/>
<stop offset="0.954688" stop-color="#88D8FF"/>
</linearGradient>
<linearGradient id="paint31_linear_76_334" x1="102.893" y1="31" x2="22.8865" y2="43.4397" gradientUnits="userSpaceOnUse">
<stop stop-color="#0179B4"/>
<stop offset="0.954688" stop-color="#88D8FF"/>
</linearGradient>
<linearGradient id="paint32_linear_76_334" x1="102.893" y1="31" x2="22.8865" y2="43.4397" gradientUnits="userSpaceOnUse">
<stop stop-color="#0179B4"/>
<stop offset="0.954688" stop-color="#88D8FF"/>
</linearGradient>
<linearGradient id="paint33_linear_76_334" x1="102.893" y1="31" x2="22.8865" y2="43.4397" gradientUnits="userSpaceOnUse">
<stop stop-color="#0179B4"/>
<stop offset="0.954688" stop-color="#88D8FF"/>
</linearGradient>
<linearGradient id="paint34_linear_76_334" x1="102.893" y1="31" x2="22.8865" y2="43.4397" gradientUnits="userSpaceOnUse">
<stop stop-color="#0179B4"/>
<stop offset="0.954688" stop-color="#88D8FF"/>
</linearGradient>
<linearGradient id="paint35_linear_76_334" x1="102.893" y1="31" x2="22.8865" y2="43.4397" gradientUnits="userSpaceOnUse">
<stop stop-color="#0179B4"/>
<stop offset="0.954688" stop-color="#88D8FF"/>
</linearGradient>
<linearGradient id="paint36_linear_76_334" x1="102.893" y1="31" x2="22.8865" y2="43.4397" gradientUnits="userSpaceOnUse">
<stop stop-color="#0179B4"/>
<stop offset="0.954688" stop-color="#88D8FF"/>
</linearGradient>
<linearGradient id="paint37_linear_76_334" x1="102.893" y1="31" x2="22.8865" y2="43.4397" gradientUnits="userSpaceOnUse">
<stop stop-color="#0179B4"/>
<stop offset="0.954688" stop-color="#88D8FF"/>
</linearGradient>
<linearGradient id="paint38_linear_76_334" x1="102.893" y1="31" x2="22.8865" y2="43.4397" gradientUnits="userSpaceOnUse">
<stop stop-color="#0179B4"/>
<stop offset="0.954688" stop-color="#88D8FF"/>
</linearGradient>
<linearGradient id="paint39_linear_76_334" x1="102.893" y1="31" x2="22.8865" y2="43.4397" gradientUnits="userSpaceOnUse">
<stop stop-color="#0179B4"/>
<stop offset="0.954688" stop-color="#88D8FF"/>
</linearGradient>
<linearGradient id="paint40_linear_76_334" x1="102.893" y1="31" x2="22.8865" y2="43.4397" gradientUnits="userSpaceOnUse">
<stop stop-color="#0179B4"/>
<stop offset="0.954688" stop-color="#88D8FF"/>
</linearGradient>
<linearGradient id="paint41_linear_76_334" x1="102.893" y1="31" x2="22.8865" y2="43.4397" gradientUnits="userSpaceOnUse">
<stop stop-color="#0179B4"/>
<stop offset="0.954688" stop-color="#88D8FF"/>
</linearGradient>
<linearGradient id="paint42_linear_76_334" x1="102.893" y1="31" x2="22.8865" y2="43.4397" gradientUnits="userSpaceOnUse">
<stop stop-color="#0179B4"/>
<stop offset="0.954688" stop-color="#88D8FF"/>
</linearGradient>
<linearGradient id="paint43_linear_76_334" x1="102.893" y1="31" x2="22.8865" y2="43.4397" gradientUnits="userSpaceOnUse">
<stop stop-color="#0179B4"/>
<stop offset="0.954688" stop-color="#88D8FF"/>
</linearGradient>
</defs>
</svg>
