<svg width="17" height="15" viewBox="0 0 17 15" fill="none" xmlns="http://www.w3.org/2000/svg">
<path d="M8.75611 12.2045L12.5414 14.3604C13.2346 14.7555 14.0828 14.1714 13.9004 13.4328L12.8971 9.37852L16.2445 6.64707C16.8556 6.14888 16.5273 5.20404 15.7246 5.14391L11.3191 4.79174L9.59525 0.960836C9.28513 0.265089 8.22709 0.265089 7.91697 0.960836L6.19308 4.78315L1.7876 5.13532C0.984942 5.19545 0.656583 6.14029 1.2677 6.63848L4.61514 9.36993L3.61182 13.4242C3.42939 14.1629 4.27766 14.7469 4.97086 14.3518L8.75611 12.2045Z" fill="#F3FBC6"/>
<path d="M6.19308 4.78581L7.91697 0.961156C8.07203 0.613069 8.41407 0.439026 8.75611 0.439026V12.2117L4.97086 14.3603C4.27766 14.7557 3.42939 14.1713 3.61182 13.4321L4.61514 9.37539L1.2677 6.64227C0.656583 6.14378 0.984942 5.19836 1.7876 5.13819L6.19308 4.78581Z" fill="#E9EF20"/>
</svg>
