<svg width="90" height="92" viewBox="0 0 90 92" fill="none" xmlns="http://www.w3.org/2000/svg">
<path d="M0 55.9996C0 51.5347 0.875278 47.1133 2.57597 42.9885C4.27668 38.8632 6.76933 35.1151 9.91179 31.9579C13.0542 28.8007 16.7847 26.2962 20.8904 24.5875C24.9963 22.879 29.3968 21.9995 33.841 21.9995V55.9996H0Z" fill="#00A4F4"/>
<path d="M0 56C0 60.7277 0.875278 65.4089 2.57597 69.7768C4.27668 74.1445 6.76933 78.113 9.91179 81.4559C13.0542 84.7989 16.7847 87.4506 20.8904 89.2598C24.9963 91.069 29.3968 92.0001 33.841 92.0001V56H0Z" fill="#2CBEFF"/>
<path d="M67.6819 56C67.6819 60.7277 66.8073 65.4089 65.1067 69.7768C63.406 74.1445 60.9134 78.113 57.7704 81.4559C54.6279 84.7989 50.8973 87.4506 46.7913 89.2598C42.6857 91.069 38.285 92.0001 33.841 92.0001V56H67.6819Z" fill="#75D4FF"/>
<path d="M89.579 26.0001C89.579 40.3595 77.9924 52.0001 63.7004 52.0001H37.8222V26.0001C37.8222 11.6407 49.4084 0 63.7004 0C77.9924 0 89.579 11.6407 89.579 26.0001Z" fill="#0084D4"/>
</svg>
