<svg width="116" height="59" viewBox="0 0 116 59" fill="none" xmlns="http://www.w3.org/2000/svg">
<g opacity="0.3">
<path d="M36.1998 0C34.8998 0 33.7998 1.10002 33.7998 2.40002C33.7998 3.70002 34.8998 4.80001 36.1998 4.80001C37.4998 4.80001 38.5998 3.70002 38.5998 2.40002C38.5998 1.10002 37.4998 0 36.1998 0Z" fill="#00A4F4"/>
<path d="M25.1002 0C23.8002 0 22.7002 1.10002 22.7002 2.40002C22.7002 3.70002 23.8002 4.80001 25.1002 4.80001C26.4002 4.80001 27.5002 3.70002 27.5002 2.40002C27.6002 1.10002 26.5002 0 25.1002 0Z" fill="#00A4F4"/>
<path d="M14.1002 0C12.8002 0 11.7002 1.10002 11.7002 2.40002C11.7002 3.70002 12.8002 4.80001 14.1002 4.80001C15.4002 4.80001 16.5002 3.70002 16.5002 2.40002C16.5002 1.10002 15.4002 0 14.1002 0Z" fill="#00A4F4"/>
<path d="M36.1998 11.5C34.8998 11.5 33.7998 12.6 33.7998 13.9C33.7998 15.2 34.8998 16.3 36.1998 16.3C37.4998 16.3 38.5998 15.2 38.5998 13.9C38.5998 12.6 37.4998 11.5 36.1998 11.5Z" fill="#00A4F4"/>
<path d="M25.1002 11.5C23.8002 11.5 22.7002 12.6 22.7002 13.9C22.7002 15.2 23.8002 16.3 25.1002 16.3C26.4002 16.3 27.5002 15.2 27.5002 13.9C27.5002 12.6 26.5002 11.5 25.1002 11.5Z" fill="#00A4F4"/>
<path d="M14.1002 11.5C12.8002 11.5 11.7002 12.6 11.7002 13.9C11.7002 15.2 12.8002 16.3 14.1002 16.3C15.4002 16.3 16.5002 15.2 16.5002 13.9C16.5002 12.6 15.4002 11.5 14.1002 11.5Z" fill="#00A4F4"/>
<path d="M38.5998 25.4C38.5998 24.0745 37.5253 23 36.1998 23C34.8743 23 33.7998 24.0745 33.7998 25.4C33.7998 26.7255 34.8743 27.8 36.1998 27.8C37.5253 27.8 38.5998 26.7255 38.5998 25.4Z" fill="#00A4F4"/>
<path d="M27.5002 25.4C27.5002 24.0745 26.4257 23 25.1002 23C23.7747 23 22.7002 24.0745 22.7002 25.4C22.7002 26.7255 23.7747 27.8 25.1002 27.8C26.4257 27.8 27.5002 26.7255 27.5002 25.4Z" fill="#00A4F4"/>
<path d="M16.5002 25.4C16.5002 24.0745 15.4257 23 14.1002 23C12.7747 23 11.7002 24.0745 11.7002 25.4C11.7002 26.7255 12.7747 27.8 14.1002 27.8C15.4257 27.8 16.5002 26.7255 16.5002 25.4Z" fill="#00A4F4"/>
<path d="M36.1998 34.4004C34.8998 34.4004 33.7998 35.5004 33.7998 36.8004C33.7998 38.1004 34.8998 39.2004 36.1998 39.2004C37.4998 39.2004 38.5998 38.1004 38.5998 36.8004C38.5998 35.5004 37.4998 34.4004 36.1998 34.4004Z" fill="#00A4F4"/>
<path d="M25.1002 34.4004C23.8002 34.4004 22.7002 35.5004 22.7002 36.8004C22.7002 38.1004 23.8002 39.2004 25.1002 39.2004C26.4002 39.2004 27.5002 38.1004 27.5002 36.8004C27.5002 35.5004 26.5002 34.4004 25.1002 34.4004Z" fill="#00A4F4"/>
<path d="M14.1002 34.4004C12.8002 34.4004 11.7002 35.5004 11.7002 36.8004C11.7002 38.1004 12.8002 39.2004 14.1002 39.2004C15.4002 39.2004 16.5002 38.1004 16.5002 36.8004C16.5002 35.5004 15.4002 34.4004 14.1002 34.4004Z" fill="#00A4F4"/>
<path d="M36.1998 45.9004C34.8998 45.9004 33.7998 47.0004 33.7998 48.3004C33.7998 49.6004 34.8998 50.7004 36.1998 50.7004C37.4998 50.7004 38.5998 49.6004 38.5998 48.3004C38.5998 47.0004 37.4998 45.9004 36.1998 45.9004Z" fill="#00A4F4"/>
<path d="M25.1002 45.9004C23.8002 45.9004 22.7002 47.0004 22.7002 48.3004C22.7002 49.6004 23.8002 50.7004 25.1002 50.7004C26.4002 50.7004 27.5002 49.6004 27.5002 48.3004C27.6002 47.0004 26.5002 45.9004 25.1002 45.9004Z" fill="#00A4F4"/>
<path d="M14.1002 45.9004C12.8002 45.9004 11.7002 47.0004 11.7002 48.3004C11.7002 49.6004 12.8002 50.7004 14.1002 50.7004C15.4002 50.7004 16.5002 49.6004 16.5002 48.3004C16.5002 47.0004 15.4002 45.9004 14.1002 45.9004Z" fill="#00A4F4"/>
<path d="M113.6 4.9006C114.9 4.9006 116 3.80058 116 2.50058C116 1.20058 114.9 0.100586 113.6 0.100586C112.3 0.100586 111.2 1.20058 111.2 2.50058C111.2 3.80058 112.2 4.9006 113.6 4.9006Z" fill="#00A4F4"/>
<path d="M102.501 0C101.201 0 100.101 1.10002 100.101 2.40002C100.101 3.70002 101.201 4.80001 102.501 4.80001C103.801 4.80001 104.901 3.70002 104.901 2.40002C104.901 1.10002 103.901 0 102.501 0Z" fill="#00A4F4"/>
<path d="M91.5006 0C90.2006 0 89.1006 1.10002 89.1006 2.40002C89.1006 3.70002 90.2006 4.80001 91.5006 4.80001C92.8006 4.80001 93.9006 3.70002 93.9006 2.40002C93.9006 1.10002 92.8006 0 91.5006 0Z" fill="#00A4F4"/>
<path d="M80.4 0C79.1 0 78 1.10002 78 2.40002C78 3.70002 79.1 4.80001 80.4 4.80001C81.7 4.80001 82.8 3.70002 82.8 2.40002C82.8 1.10002 81.8 0 80.4 0Z" fill="#00A4F4"/>
<path d="M69.4 0C68.1 0 67 1.10002 67 2.40002C67 3.70002 68.1 4.80001 69.4 4.80001C70.7 4.80001 71.8 3.70002 71.8 2.40002C71.8 1.10002 70.7 0 69.4 0Z" fill="#00A4F4"/>
<path d="M58.3004 0C57.0004 0 55.9004 1.10002 55.9004 2.40002C55.9004 3.70002 57.0004 4.80001 58.3004 4.80001C59.6004 4.80001 60.7004 3.70002 60.7004 2.40002C60.7004 1.10002 59.6004 0 58.3004 0Z" fill="#00A4F4"/>
<path d="M47.1998 0C45.8998 0 44.7998 1.10002 44.7998 2.40002C44.7998 3.70002 45.8998 4.80001 47.1998 4.80001C48.4998 4.80001 49.5998 3.70002 49.5998 2.40002C49.6998 1.10002 48.5998 0 47.1998 0Z" fill="#00A4F4"/>
<path d="M113.6 11.5C112.3 11.5 111.2 12.6 111.2 13.9C111.2 15.2 112.3 16.3 113.6 16.3C114.9 16.3 116 15.2 116 13.9C116 12.6 114.9 11.5 113.6 11.5Z" fill="#00A4F4"/>
<path d="M102.501 11.5C101.201 11.5 100.101 12.6 100.101 13.9C100.101 15.2 101.201 16.3 102.501 16.3C103.801 16.3 104.901 15.2 104.901 13.9C104.901 12.6 103.901 11.5 102.501 11.5Z" fill="#00A4F4"/>
<path d="M91.5006 11.5C90.2006 11.5 89.1006 12.6 89.1006 13.9C89.1006 15.2 90.2006 16.3 91.5006 16.3C92.8006 16.3 93.9006 15.2 93.9006 13.9C93.9006 12.6 92.8006 11.5 91.5006 11.5Z" fill="#00A4F4"/>
<path d="M80.4 11.5C79.1 11.5 78 12.6 78 13.9C78 15.2 79.1 16.3 80.4 16.3C81.7 16.3 82.8 15.2 82.8 13.9C82.8 12.6 81.8 11.5 80.4 11.5Z" fill="#00A4F4"/>
<path d="M69.4 11.5C68.1 11.5 67 12.6 67 13.9C67 15.2 68.1 16.3 69.4 16.3C70.7 16.3 71.8 15.2 71.8 13.9C71.8 12.6 70.7 11.5 69.4 11.5Z" fill="#00A4F4"/>
<path d="M58.3004 11.5C57.0004 11.5 55.9004 12.6 55.9004 13.9C55.9004 15.2 57.0004 16.3 58.3004 16.3C59.6004 16.3 60.7004 15.2 60.7004 13.9C60.7004 12.6 59.6004 11.5 58.3004 11.5Z" fill="#00A4F4"/>
<path d="M47.1998 11.5C45.8998 11.5 44.7998 12.6 44.7998 13.9C44.7998 15.2 45.8998 16.3 47.1998 16.3C48.4998 16.3 49.5998 15.2 49.5998 13.9C49.5998 12.6 48.5998 11.5 47.1998 11.5Z" fill="#00A4F4"/>
<path d="M113.6 23C112.3 23 111.2 24.1 111.2 25.4C111.2 26.7 112.3 27.8 113.6 27.8C114.9 27.8 116 26.7 116 25.4C116 24.1 114.9 23 113.6 23Z" fill="#00A4F4"/>
<path d="M102.501 23C101.201 23 100.101 24.1 100.101 25.4C100.101 26.7 101.201 27.8 102.501 27.8C103.801 27.8 104.901 26.7 104.901 25.4C104.901 24.1 103.901 23 102.501 23Z" fill="#00A4F4"/>
<path d="M91.5006 23C90.2006 23 89.1006 24.1 89.1006 25.4C89.1006 26.7 90.2006 27.8 91.5006 27.8C92.8006 27.8 93.9006 26.7 93.9006 25.4C93.9006 24.1 92.8006 23 91.5006 23Z" fill="#00A4F4"/>
<path d="M80.4 23C79.1 23 78 24.1 78 25.4C78 26.7 79.1 27.8 80.4 27.8C81.7 27.8 82.8 26.7 82.8 25.4C82.8 24.1 81.8 23 80.4 23Z" fill="#00A4F4"/>
<path d="M71.8 25.4C71.8 24.0745 70.7255 23 69.4 23C68.0745 23 67 24.0745 67 25.4C67 26.7255 68.0745 27.8 69.4 27.8C70.7255 27.8 71.8 26.7255 71.8 25.4Z" fill="#00A4F4"/>
<path d="M58.3004 23C57.0004 23 55.9004 24.1 55.9004 25.4C55.9004 26.7 57.0004 27.8 58.3004 27.8C59.6004 27.8 60.7004 26.7 60.7004 25.4C60.7004 24.1 59.6004 23 58.3004 23Z" fill="#00A4F4"/>
<path d="M47.1998 23C45.8998 23 44.7998 24.1 44.7998 25.4C44.7998 26.7 45.8998 27.8 47.1998 27.8C48.4998 27.8 49.5998 26.7 49.5998 25.4C49.6998 24.1 48.5998 23 47.1998 23Z" fill="#00A4F4"/>
<path d="M113.6 34.4004C112.3 34.4004 111.2 35.5004 111.2 36.8004C111.2 38.1004 112.3 39.2004 113.6 39.2004C114.9 39.2004 116 38.1004 116 36.8004C116 35.5004 114.9 34.4004 113.6 34.4004Z" fill="#00A4F4"/>
<path d="M102.501 34.4004C101.201 34.4004 100.101 35.5004 100.101 36.8004C100.101 38.1004 101.201 39.2004 102.501 39.2004C103.801 39.2004 104.901 38.1004 104.901 36.8004C104.901 35.5004 103.901 34.4004 102.501 34.4004Z" fill="#00A4F4"/>
<path d="M91.5006 34.4004C90.2006 34.4004 89.1006 35.5004 89.1006 36.8004C89.1006 38.1004 90.2006 39.2004 91.5006 39.2004C92.8006 39.2004 93.9006 38.1004 93.9006 36.8004C93.9006 35.5004 92.8006 34.4004 91.5006 34.4004Z" fill="#00A4F4"/>
<path d="M80.4 34.4004C79.1 34.4004 78 35.5004 78 36.8004C78 38.1004 79.1 39.2004 80.4 39.2004C81.7 39.2004 82.8 38.1004 82.8 36.8004C82.8 35.5004 81.8 34.4004 80.4 34.4004Z" fill="#00A4F4"/>
<path d="M69.4 34.4004C68.1 34.4004 67 35.5004 67 36.8004C67 38.1004 68.1 39.2004 69.4 39.2004C70.7 39.2004 71.8 38.1004 71.8 36.8004C71.8 35.5004 70.7 34.4004 69.4 34.4004Z" fill="#00A4F4"/>
<path d="M58.3004 34.4004C57.0004 34.4004 55.9004 35.5004 55.9004 36.8004C55.9004 38.1004 57.0004 39.2004 58.3004 39.2004C59.6004 39.2004 60.7004 38.1004 60.7004 36.8004C60.7004 35.5004 59.6004 34.4004 58.3004 34.4004Z" fill="#00A4F4"/>
<path d="M47.1998 34.4004C45.8998 34.4004 44.7998 35.5004 44.7998 36.8004C44.7998 38.1004 45.8998 39.2004 47.1998 39.2004C48.4998 39.2004 49.5998 38.1004 49.5998 36.8004C49.5998 35.5004 48.5998 34.4004 47.1998 34.4004Z" fill="#00A4F4"/>
<path d="M113.6 45.9004C112.3 45.9004 111.2 47.0004 111.2 48.3004C111.2 49.6004 112.3 50.7004 113.6 50.7004C114.9 50.7004 116 49.6004 116 48.3004C116 47.0004 114.9 45.9004 113.6 45.9004Z" fill="#00A4F4"/>
<path d="M102.501 45.9004C101.201 45.9004 100.101 47.0004 100.101 48.3004C100.101 49.6004 101.201 50.7004 102.501 50.7004C103.801 50.7004 104.901 49.6004 104.901 48.3004C104.901 47.0004 103.901 45.9004 102.501 45.9004Z" fill="#00A4F4"/>
<path d="M91.5006 45.9004C90.2006 45.9004 89.1006 47.0004 89.1006 48.3004C89.1006 49.6004 90.2006 50.7004 91.5006 50.7004C92.8006 50.7004 93.9006 49.6004 93.9006 48.3004C93.9006 47.0004 92.8006 45.9004 91.5006 45.9004Z" fill="#00A4F4"/>
<path d="M80.4 45.9004C79.1 45.9004 78 47.0004 78 48.3004C78 49.6004 79.1 50.7004 80.4 50.7004C81.7 50.7004 82.8 49.6004 82.8 48.3004C82.8 47.0004 81.8 45.9004 80.4 45.9004Z" fill="#00A4F4"/>
<path d="M69.4 45.9004C68.1 45.9004 67 47.0004 67 48.3004C67 49.6004 68.1 50.7004 69.4 50.7004C70.7 50.7004 71.8 49.6004 71.8 48.3004C71.8 47.0004 70.7 45.9004 69.4 45.9004Z" fill="#00A4F4"/>
<path d="M58.3004 45.9004C57.0004 45.9004 55.9004 47.0004 55.9004 48.3004C55.9004 49.6004 57.0004 50.7004 58.3004 50.7004C59.6004 50.7004 60.7004 49.6004 60.7004 48.3004C60.7004 47.0004 59.6004 45.9004 58.3004 45.9004Z" fill="#00A4F4"/>
<path d="M47.1998 45.9004C45.8998 45.9004 44.7998 47.0004 44.7998 48.3004C44.7998 49.6004 45.8998 50.7004 47.1998 50.7004C48.4998 50.7004 49.5998 49.6004 49.5998 48.3004C49.6998 47.0004 48.5998 45.9004 47.1998 45.9004Z" fill="#00A4F4"/>
<path d="M24.4996 8.40039C23.1996 8.40039 22.0996 9.50038 22.0996 10.8004C22.0996 12.1004 23.1996 13.2004 24.4996 13.2004C25.7996 13.2004 26.8996 12.1004 26.8996 10.8004C26.8996 9.50038 25.7996 8.40039 24.4996 8.40039Z" fill="#0069AB"/>
<path d="M13.4 8.40039C12.1 8.40039 11 9.50038 11 10.8004C11 12.1004 12.1 13.2004 13.4 13.2004C14.7 13.2004 15.8 12.1004 15.8 10.8004C15.8 9.50038 14.8 8.40039 13.4 8.40039Z" fill="#0069AB"/>
<path d="M2.39999 8.40039C1.09999 8.40039 0 9.50038 0 10.8004C0 12.1004 1.09999 13.2004 2.39999 13.2004C3.69999 13.2004 4.79999 12.1004 4.79999 10.8004C4.79999 9.50038 3.69999 8.40039 2.39999 8.40039Z" fill="#0069AB"/>
<path d="M24.4996 19.9004C23.1996 19.9004 22.0996 21.0004 22.0996 22.3004C22.0996 23.6004 23.1996 24.7004 24.4996 24.7004C25.7996 24.7004 26.8996 23.6004 26.8996 22.3004C26.8996 21.0004 25.7996 19.9004 24.4996 19.9004Z" fill="#0069AB"/>
<path d="M13.4 19.9004C12.1 19.9004 11 21.0004 11 22.3004C11 23.6004 12.1 24.7004 13.4 24.7004C14.7 24.7004 15.8 23.6004 15.8 22.3004C15.8 21.0004 14.8 19.9004 13.4 19.9004Z" fill="#0069AB"/>
<path d="M2.39999 19.9004C1.09999 19.9004 0 21.0004 0 22.3004C0 23.6004 1.09999 24.7004 2.39999 24.7004C3.69999 24.7004 4.79999 23.6004 4.79999 22.3004C4.79999 21.0004 3.69999 19.9004 2.39999 19.9004Z" fill="#0069AB"/>
<path d="M24.4996 31.3003C23.1996 31.3003 22.0996 32.4003 22.0996 33.7003C22.0996 35.0003 23.1996 36.1003 24.4996 36.1003C25.7996 36.1003 26.8996 35.0003 26.8996 33.7003C26.8996 32.4003 25.7996 31.3003 24.4996 31.3003Z" fill="#0069AB"/>
<path d="M13.4 31.3003C12.1 31.3003 11 32.4003 11 33.7003C11 35.0003 12.1 36.1003 13.4 36.1003C14.7 36.1003 15.8 35.0003 15.8 33.7003C15.8 32.4003 14.8 31.3003 13.4 31.3003Z" fill="#0069AB"/>
<path d="M2.39999 31.3003C1.09999 31.3003 0 32.4003 0 33.7003C0 35.0003 1.09999 36.1003 2.39999 36.1003C3.69999 36.1003 4.79999 35.0003 4.79999 33.7003C4.79999 32.4003 3.69999 31.3003 2.39999 31.3003Z" fill="#0069AB"/>
<path d="M24.4996 42.8003C23.1996 42.8003 22.0996 43.9003 22.0996 45.2003C22.0996 46.5003 23.1996 47.6003 24.4996 47.6003C25.7996 47.6003 26.8996 46.5003 26.8996 45.2003C26.8996 43.9003 25.7996 42.8003 24.4996 42.8003Z" fill="#0069AB"/>
<path d="M13.4 42.8003C12.1 42.8003 11 43.9003 11 45.2003C11 46.5003 12.1 47.6003 13.4 47.6003C14.7 47.6003 15.8 46.5003 15.8 45.2003C15.8 43.9003 14.8 42.8003 13.4 42.8003Z" fill="#0069AB"/>
<path d="M2.39999 42.8003C1.09999 42.8003 0 43.9003 0 45.2003C0 46.5003 1.09999 47.6003 2.39999 47.6003C3.69999 47.6003 4.79999 46.5003 4.79999 45.2003C4.79999 43.9003 3.69999 42.8003 2.39999 42.8003Z" fill="#0069AB"/>
<path d="M24.4996 54.2002C23.1996 54.2002 22.0996 55.3002 22.0996 56.6002C22.0996 57.9002 23.1996 59.0002 24.4996 59.0002C25.7996 59.0002 26.8996 57.9002 26.8996 56.6002C26.8996 55.3002 25.7996 54.2002 24.4996 54.2002Z" fill="#0069AB"/>
<path d="M13.4 54.2002C12.1 54.2002 11 55.3002 11 56.6002C11 57.9002 12.1 59.0002 13.4 59.0002C14.7 59.0002 15.8 57.9002 15.8 56.6002C15.8 55.3002 14.8 54.2002 13.4 54.2002Z" fill="#0069AB"/>
<path d="M2.39999 54.2002C1.09999 54.2002 0 55.3002 0 56.6002C0 57.9002 1.09999 59.0002 2.39999 59.0002C3.69999 59.0002 4.79999 57.9002 4.79999 56.6002C4.79999 55.3002 3.69999 54.2002 2.39999 54.2002Z" fill="#0069AB"/>
<path d="M101.9 13.3C103.2 13.3 104.3 12.2 104.3 10.9C104.3 9.60001 103.2 8.5 101.9 8.5C100.6 8.5 99.5 9.60001 99.5 10.9C99.5 12.2 100.5 13.3 101.9 13.3Z" fill="#0069AB"/>
<path d="M93.2004 10.8004C93.2004 9.4749 92.1259 8.40039 90.8004 8.40039C89.4749 8.40039 88.4004 9.4749 88.4004 10.8004C88.4004 12.1259 89.4749 13.2004 90.8004 13.2004C92.1259 13.2004 93.2004 12.1259 93.2004 10.8004Z" fill="#0069AB"/>
<path d="M79.8004 8.40039C78.5004 8.40039 77.4004 9.50038 77.4004 10.8004C77.4004 12.1004 78.5004 13.2004 79.8004 13.2004C81.1004 13.2004 82.2004 12.1004 82.2004 10.8004C82.2004 9.50038 81.1004 8.40039 79.8004 8.40039Z" fill="#0069AB"/>
<path d="M71.0998 10.8004C71.0998 9.4749 70.0253 8.40039 68.6998 8.40039C67.3743 8.40039 66.2998 9.4749 66.2998 10.8004C66.2998 12.1259 67.3743 13.2004 68.6998 13.2004C70.0253 13.2004 71.0998 12.1259 71.0998 10.8004Z" fill="#0069AB"/>
<path d="M60.0002 10.8004C60.0002 9.4749 58.9257 8.40039 57.6002 8.40039C56.2747 8.40039 55.2002 9.4749 55.2002 10.8004C55.2002 12.1259 56.2747 13.2004 57.6002 13.2004C58.9257 13.2004 60.0002 12.1259 60.0002 10.8004Z" fill="#0069AB"/>
<path d="M46.6002 8.40039C45.3002 8.40039 44.2002 9.50038 44.2002 10.8004C44.2002 12.1004 45.3002 13.2004 46.6002 13.2004C47.9002 13.2004 49.0002 12.1004 49.0002 10.8004C49.0002 9.50038 47.9002 8.40039 46.6002 8.40039Z" fill="#0069AB"/>
<path d="M37.8996 10.8004C37.8996 9.4749 36.8251 8.40039 35.4996 8.40039C34.1741 8.40039 33.0996 9.4749 33.0996 10.8004C33.0996 12.1259 34.1741 13.2004 35.4996 13.2004C36.8251 13.2004 37.8996 12.1259 37.8996 10.8004Z" fill="#0069AB"/>
<path d="M101.9 19.9004C100.6 19.9004 99.5 21.0004 99.5 22.3004C99.5 23.6004 100.6 24.7004 101.9 24.7004C103.2 24.7004 104.3 23.6004 104.3 22.3004C104.3 21.0004 103.2 19.9004 101.9 19.9004Z" fill="#0069AB"/>
<path d="M93.2004 22.3004C93.2004 20.9749 92.1259 19.9004 90.8004 19.9004C89.4749 19.9004 88.4004 20.9749 88.4004 22.3004C88.4004 23.6259 89.4749 24.7004 90.8004 24.7004C92.1259 24.7004 93.2004 23.6259 93.2004 22.3004Z" fill="#0069AB"/>
<path d="M79.8004 19.9004C78.5004 19.9004 77.4004 21.0004 77.4004 22.3004C77.4004 23.6004 78.5004 24.7004 79.8004 24.7004C81.1004 24.7004 82.2004 23.6004 82.2004 22.3004C82.2004 21.0004 81.1004 19.9004 79.8004 19.9004Z" fill="#0069AB"/>
<path d="M71.0998 22.3004C71.0998 20.9749 70.0253 19.9004 68.6998 19.9004C67.3743 19.9004 66.2998 20.9749 66.2998 22.3004C66.2998 23.6259 67.3743 24.7004 68.6998 24.7004C70.0253 24.7004 71.0998 23.6259 71.0998 22.3004Z" fill="#0069AB"/>
<path d="M60.0002 22.3004C60.0002 20.9749 58.9257 19.9004 57.6002 19.9004C56.2747 19.9004 55.2002 20.9749 55.2002 22.3004C55.2002 23.6259 56.2747 24.7004 57.6002 24.7004C58.9257 24.7004 60.0002 23.6259 60.0002 22.3004Z" fill="#0069AB"/>
<path d="M46.6002 19.9004C45.3002 19.9004 44.2002 21.0004 44.2002 22.3004C44.2002 23.6004 45.3002 24.7004 46.6002 24.7004C47.9002 24.7004 49.0002 23.6004 49.0002 22.3004C49.0002 21.0004 47.9002 19.9004 46.6002 19.9004Z" fill="#0069AB"/>
<path d="M37.8996 22.3004C37.8996 20.9749 36.8251 19.9004 35.4996 19.9004C34.1741 19.9004 33.0996 20.9749 33.0996 22.3004C33.0996 23.6259 34.1741 24.7004 35.4996 24.7004C36.8251 24.7004 37.8996 23.6259 37.8996 22.3004Z" fill="#0069AB"/>
<path d="M101.9 31.3003C100.6 31.3003 99.5 32.4003 99.5 33.7003C99.5 35.0003 100.6 36.1003 101.9 36.1003C103.2 36.1003 104.3 35.0003 104.3 33.7003C104.3 32.4003 103.2 31.3003 101.9 31.3003Z" fill="#0069AB"/>
<path d="M90.8004 31.3003C89.5004 31.3003 88.4004 32.4003 88.4004 33.7003C88.4004 35.0003 89.5004 36.1003 90.8004 36.1003C92.1004 36.1003 93.2004 35.0003 93.2004 33.7003C93.2004 32.4003 92.2004 31.3003 90.8004 31.3003Z" fill="#0069AB"/>
<path d="M79.8004 31.3003C78.5004 31.3003 77.4004 32.4003 77.4004 33.7003C77.4004 35.0003 78.5004 36.1003 79.8004 36.1003C81.1004 36.1003 82.2004 35.0003 82.2004 33.7003C82.2004 32.4003 81.1004 31.3003 79.8004 31.3003Z" fill="#0069AB"/>
<path d="M68.6998 31.3003C67.3998 31.3003 66.2998 32.4003 66.2998 33.7003C66.2998 35.0003 67.3998 36.1003 68.6998 36.1003C69.9998 36.1003 71.0998 35.0003 71.0998 33.7003C71.0998 32.4003 69.9998 31.3003 68.6998 31.3003Z" fill="#0069AB"/>
<path d="M57.6002 31.3003C56.3002 31.3003 55.2002 32.4003 55.2002 33.7003C55.2002 35.0003 56.3002 36.1003 57.6002 36.1003C58.9002 36.1003 60.0002 35.0003 60.0002 33.7003C60.1002 32.4003 59.0002 31.3003 57.6002 31.3003Z" fill="#0069AB"/>
<path d="M46.6002 31.3003C45.3002 31.3003 44.2002 32.4003 44.2002 33.7003C44.2002 35.0003 45.3002 36.1003 46.6002 36.1003C47.9002 36.1003 49.0002 35.0003 49.0002 33.7003C49.0002 32.4003 47.9002 31.3003 46.6002 31.3003Z" fill="#0069AB"/>
<path d="M35.4996 31.3003C34.1996 31.3003 33.0996 32.4003 33.0996 33.7003C33.0996 35.0003 34.1996 36.1003 35.4996 36.1003C36.7996 36.1003 37.8996 35.0003 37.8996 33.7003C37.9996 32.4003 36.8996 31.3003 35.4996 31.3003Z" fill="#0069AB"/>
<path d="M101.9 42.8003C100.6 42.8003 99.5 43.9003 99.5 45.2003C99.5 46.5003 100.6 47.6003 101.9 47.6003C103.2 47.6003 104.3 46.5003 104.3 45.2003C104.3 43.9003 103.2 42.8003 101.9 42.8003Z" fill="#0069AB"/>
<path d="M90.8004 42.8003C89.5004 42.8003 88.4004 43.9003 88.4004 45.2003C88.4004 46.5003 89.5004 47.6003 90.8004 47.6003C92.1004 47.6003 93.2004 46.5003 93.2004 45.2003C93.2004 43.9003 92.2004 42.8003 90.8004 42.8003Z" fill="#0069AB"/>
<path d="M79.8004 42.8003C78.5004 42.8003 77.4004 43.9003 77.4004 45.2003C77.4004 46.5003 78.5004 47.6003 79.8004 47.6003C81.1004 47.6003 82.2004 46.5003 82.2004 45.2003C82.2004 43.9003 81.1004 42.8003 79.8004 42.8003Z" fill="#0069AB"/>
<path d="M68.6998 42.8003C67.3998 42.8003 66.2998 43.9003 66.2998 45.2003C66.2998 46.5003 67.3998 47.6003 68.6998 47.6003C69.9998 47.6003 71.0998 46.5003 71.0998 45.2003C71.0998 43.9003 69.9998 42.8003 68.6998 42.8003Z" fill="#0069AB"/>
<path d="M57.6002 42.8003C56.3002 42.8003 55.2002 43.9003 55.2002 45.2003C55.2002 46.5003 56.3002 47.6003 57.6002 47.6003C58.9002 47.6003 60.0002 46.5003 60.0002 45.2003C60.1002 43.9003 59.0002 42.8003 57.6002 42.8003Z" fill="#0069AB"/>
<path d="M46.6002 42.8003C45.3002 42.8003 44.2002 43.9003 44.2002 45.2003C44.2002 46.5003 45.3002 47.6003 46.6002 47.6003C47.9002 47.6003 49.0002 46.5003 49.0002 45.2003C49.0002 43.9003 47.9002 42.8003 46.6002 42.8003Z" fill="#0069AB"/>
<path d="M35.4996 42.8003C34.1996 42.8003 33.0996 43.9003 33.0996 45.2003C33.0996 46.5003 34.1996 47.6003 35.4996 47.6003C36.7996 47.6003 37.8996 46.5003 37.8996 45.2003C37.9996 43.9003 36.8996 42.8003 35.4996 42.8003Z" fill="#0069AB"/>
<path d="M101.9 54.2002C100.6 54.2002 99.5 55.3002 99.5 56.6002C99.5 57.9002 100.6 59.0002 101.9 59.0002C103.2 59.0002 104.3 57.9002 104.3 56.6002C104.3 55.3002 103.2 54.2002 101.9 54.2002Z" fill="#0069AB"/>
<path d="M90.8004 54.2002C89.5004 54.2002 88.4004 55.3002 88.4004 56.6002C88.4004 57.9002 89.5004 59.0002 90.8004 59.0002C92.1004 59.0002 93.2004 57.9002 93.2004 56.6002C93.2004 55.3002 92.2004 54.2002 90.8004 54.2002Z" fill="#0069AB"/>
<path d="M79.8004 54.2002C78.5004 54.2002 77.4004 55.3002 77.4004 56.6002C77.4004 57.9002 78.5004 59.0002 79.8004 59.0002C81.1004 59.0002 82.2004 57.9002 82.2004 56.6002C82.2004 55.3002 81.1004 54.2002 79.8004 54.2002Z" fill="#0069AB"/>
<path d="M68.6998 54.2002C67.3998 54.2002 66.2998 55.3002 66.2998 56.6002C66.2998 57.9002 67.3998 59.0002 68.6998 59.0002C69.9998 59.0002 71.0998 57.9002 71.0998 56.6002C71.0998 55.3002 69.9998 54.2002 68.6998 54.2002Z" fill="#0069AB"/>
<path d="M57.6002 54.2002C56.3002 54.2002 55.2002 55.3002 55.2002 56.6002C55.2002 57.9002 56.3002 59.0002 57.6002 59.0002C58.9002 59.0002 60.0002 57.9002 60.0002 56.6002C60.0002 55.3002 59.0002 54.2002 57.6002 54.2002Z" fill="#0069AB"/>
<path d="M46.6002 54.2002C45.3002 54.2002 44.2002 55.3002 44.2002 56.6002C44.2002 57.9002 45.3002 59.0002 46.6002 59.0002C47.9002 59.0002 49.0002 57.9002 49.0002 56.6002C49.0002 55.3002 47.9002 54.2002 46.6002 54.2002Z" fill="#0069AB"/>
<path d="M35.4996 54.2002C34.1996 54.2002 33.0996 55.3002 33.0996 56.6002C33.0996 57.9002 34.1996 59.0002 35.4996 59.0002C36.7996 59.0002 37.8996 57.9002 37.8996 56.6002C37.8996 55.3002 36.8996 54.2002 35.4996 54.2002Z" fill="#0069AB"/>
</g>
</svg>
