<svg width="142" height="40" viewBox="0 0 142 40" fill="none" xmlns="http://www.w3.org/2000/svg">
<path d="M0 1C7.88887 1 7.88894 9.56036 15.7778 9.56036C23.6667 9.56036 23.6666 1 31.5555 1C39.4444 1 39.4444 9.56036 47.3333 9.56036C55.2222 9.56036 55.2223 1 63.1111 1C71 1 71 9.56036 78.8887 9.56036C86.7775 9.56036 86.7775 1 94.6669 1C102.556 1 102.556 9.56036 110.444 9.56036C118.333 9.56036 118.333 1 126.222 1C134.111 1 134.111 9.56036 142 9.56036" stroke="url(#paint0_linear_76_609)" stroke-width="2.01896" stroke-miterlimit="10"/>
<path d="M0 15.4353C7.88887 15.4353 7.88894 23.9955 15.7778 23.9955C23.6667 23.9955 23.6666 15.4353 31.5555 15.4353C39.4444 15.4353 39.4444 23.9955 47.3333 23.9955C55.2222 23.9955 55.2223 15.4353 63.1111 15.4353C71 15.4353 71 23.9955 78.8887 23.9955C86.7775 23.9955 86.7775 15.4353 94.6669 15.4353C102.556 15.4353 102.556 23.9955 110.444 23.9955C118.333 23.9955 118.333 15.4353 126.222 15.4353C134.111 15.4353 134.111 23.9955 142 23.9955" stroke="url(#paint1_linear_76_609)" stroke-width="2.01896" stroke-miterlimit="10"/>
<path d="M0 29.7024C7.88887 29.7024 7.88894 38.2626 15.7778 38.2626C23.6667 38.2626 23.6666 29.7024 31.5555 29.7024C39.4444 29.7024 39.4444 38.2626 47.3333 38.2626C55.2222 38.2626 55.2223 29.7024 63.1111 29.7024C71 29.7024 71 38.2626 78.8887 38.2626C86.7775 38.2626 86.7775 29.7024 94.6669 29.7024C102.556 29.7024 102.556 38.2626 110.444 38.2626C118.333 38.2626 118.333 29.7024 126.222 29.7024C134.111 29.7024 134.111 38.2626 142 38.2626" stroke="url(#paint2_linear_76_609)" stroke-width="2.01896" stroke-miterlimit="10"/>
<defs>
<linearGradient id="paint0_linear_76_609" x1="26.931" y1="5.28018" x2="35.0924" y2="25.8455" gradientUnits="userSpaceOnUse">
<stop stop-color="#0179B4"/>
<stop offset="0.876334" stop-color="#88D8FF"/>
</linearGradient>
<linearGradient id="paint1_linear_76_609" x1="26.931" y1="19.7154" x2="35.0922" y2="40.2806" gradientUnits="userSpaceOnUse">
<stop stop-color="#0179B4"/>
<stop offset="0.876334" stop-color="#88D8FF"/>
</linearGradient>
<linearGradient id="paint2_linear_76_609" x1="26.931" y1="33.9825" x2="35.0922" y2="54.5477" gradientUnits="userSpaceOnUse">
<stop stop-color="#0179B4"/>
<stop offset="0.876334" stop-color="#88D8FF"/>
</linearGradient>
</defs>
</svg>
