<svg width="32" height="32" viewBox="0 0 32 32" fill="none" xmlns="http://www.w3.org/2000/svg">
<path d="M26.6667 5.33331H5.33333C3.86666 5.33331 2.68 6.53331 2.68 7.99998L2.66666 24C2.66666 25.4666 3.86666 26.6666 5.33333 26.6666H26.6667C28.1333 26.6666 29.3333 25.4666 29.3333 24V7.99998C29.3333 6.53331 28.1333 5.33331 26.6667 5.33331ZM26.1333 11L16.7067 16.8933C16.28 17.16 15.72 17.16 15.2933 16.8933L5.86666 11C5.73297 10.9249 5.61589 10.8235 5.52252 10.7019C5.42914 10.5803 5.36141 10.441 5.32343 10.2925C5.28545 10.1439 5.278 9.98923 5.30154 9.83772C5.32508 9.68622 5.37911 9.54106 5.46037 9.41105C5.54163 9.28103 5.64843 9.16885 5.7743 9.08131C5.90017 8.99376 6.04249 8.93266 6.19266 8.90171C6.34282 8.87076 6.49771 8.8706 6.64794 8.90124C6.79817 8.93189 6.94062 8.99269 7.06666 9.07998L16 14.6666L24.9333 9.07998C25.0594 8.99269 25.2018 8.93189 25.3521 8.90124C25.5023 8.8706 25.6572 8.87076 25.8073 8.90171C25.9575 8.93266 26.0998 8.99376 26.2257 9.08131C26.3516 9.16885 26.4584 9.28103 26.5396 9.41105C26.6209 9.54106 26.6749 9.68622 26.6985 9.83772C26.722 9.98923 26.7145 10.1439 26.6766 10.2925C26.6386 10.441 26.5709 10.5803 26.4775 10.7019C26.3841 10.8235 26.267 10.9249 26.1333 11Z" fill="#00A4F4"/>
</svg>
