<svg width="104" height="106" viewBox="0 0 104 106" fill="none" xmlns="http://www.w3.org/2000/svg">
<path d="M90.6422 58.6846V47.8993C90.6422 46.7947 89.7468 45.8993 88.6422 45.8993H61.3468C60.2422 45.8993 59.3468 45.0038 59.3468 43.8993V16.7947C59.3468 15.6901 58.4514 14.7947 57.3468 14.7947H33.2954C32.1909 14.7947 31.2954 15.6901 31.2954 16.7947V44.0901C31.2954 45.1947 30.4 46.0901 29.2954 46.0901H2.00002C0.895454 46.0901 2.28882e-05 46.9855 2.28882e-05 48.0901V72.1415C2.28882e-05 73.246 0.895454 74.1415 2.00002 74.1415H29.2954C30.4 74.1415 31.2954 75.0369 31.2954 76.1415V103.437C31.2954 104.541 32.1909 105.437 33.2954 105.437H57.3468C58.4514 105.437 59.3468 104.541 59.3468 103.437V76.1415C59.3468 75.0369 60.2422 74.1415 61.3468 74.1415H88.6422C89.7468 74.1415 90.6422 73.246 90.6422 72.1415V58.6846ZM82.7266 52.0057C83.8312 52.0057 84.7266 52.9011 84.7266 54.0057V66.035C84.7266 67.1396 83.8312 68.035 82.7266 68.035H55.4312C54.3266 68.035 53.4312 68.9305 53.4312 70.035V97.3304C53.4312 98.435 52.5358 99.3304 51.4312 99.3304H39.4019C38.2973 99.3304 37.4019 98.435 37.4019 97.3304V70.035C37.4019 68.9305 36.5064 68.035 35.4019 68.035H8.10644C7.00187 68.035 6.10644 67.1396 6.10644 66.035V54.0057C6.10644 52.9011 7.00187 52.0057 8.10644 52.0057H35.4019C36.5064 52.0057 37.4019 51.1103 37.4019 50.0057V22.7103C37.4019 21.6057 38.2973 20.7103 39.4019 20.7103H51.4312C52.5358 20.7103 53.4312 21.6057 53.4312 22.7103V50.0057C53.4312 51.1103 54.3266 52.0057 55.4312 52.0057H82.7266Z" fill="#99BDD1"/>
<path fill-rule="evenodd" clip-rule="evenodd" d="M104 33.1046V43.89V57.3468C104 58.4514 103.105 59.3468 102 59.3468H74.7046C73.6 59.3468 72.7046 60.2423 72.7046 61.3468V88.6423C72.7046 89.7468 71.8091 90.6423 70.7046 90.6423H46.6532C45.5486 90.6423 44.6532 89.7468 44.6532 88.6423V61.3468C44.6532 60.2423 43.7578 59.3468 42.6532 59.3468H15.3578C14.2532 59.3468 13.3578 58.4514 13.3578 57.3468V33.2955C13.3578 32.1909 14.2532 31.2955 15.3578 31.2955H42.6532C43.7578 31.2955 44.6532 30.4 44.6532 29.2955V2C44.6532 0.895431 45.5486 0 46.6532 0H70.7046C71.8091 0 72.7046 0.895433 72.7046 2V29.1046C72.7046 30.2092 73.6 31.1046 74.7046 31.1046H102C103.105 31.1046 104 32.0001 104 33.1046Z" fill="url(#paint0_linear_76_603)"/>
<defs>
<linearGradient id="paint0_linear_76_603" x1="86.8092" y1="45.3211" x2="39.1511" y2="52.5607" gradientUnits="userSpaceOnUse">
<stop stop-color="#0179B4"/>
<stop offset="0.908717" stop-color="#88D8FF"/>
</linearGradient>
</defs>
</svg>
