<svg width="62" height="50" viewBox="0 0 62 50" fill="none" xmlns="http://www.w3.org/2000/svg">
<path d="M20.6667 25H7.74955C6.53498 25 5.5954 23.9238 5.8663 22.7398C6.46542 20.1214 7.45577 17.6193 8.80294 15.3329C10.5333 12.3962 12.8142 9.87977 15.5 7.94444L18.615 5.699C19.4656 5.08587 19.6982 3.91993 19.1481 3.0273L18.4105 1.8304C17.8012 0.841624 16.4805 0.578096 15.5383 1.25727L12.6583 3.33333C8.76597 6.12243 5.57408 9.90155 3.36591 14.3353C1.15774 18.7691 0.00156831 23.7205 0 28.75V44.4444C0 45.9179 0.544343 47.3309 1.51328 48.3728C2.48222 49.4147 3.79638 50 5.16667 50H20.6667C22.037 50 23.3511 49.4147 24.32 48.3728C25.289 47.3309 25.8333 45.9179 25.8333 44.4444V30.5556C25.8333 29.0821 25.289 27.6691 24.32 26.6272C23.3511 25.5853 22.037 25 20.6667 25ZM56.8333 25H43.9162C42.7016 25 41.7621 23.9238 42.033 22.7398C42.6321 20.1214 43.6224 17.6193 44.9696 15.3329C46.6999 12.3962 48.9808 9.87977 51.6667 7.94444L54.7878 5.69457C55.6358 5.08327 55.87 3.922 55.3252 3.02981L54.5972 1.83761C53.9912 0.845392 52.6699 0.577112 51.725 1.25446L48.825 3.33333C44.9326 6.12243 41.7407 9.90155 39.5326 14.3353C37.3244 18.7691 36.1682 23.7205 36.1667 28.75V44.4444C36.1667 45.9179 36.711 47.3309 37.6799 48.3728C38.6489 49.4147 39.963 50 41.3333 50H56.8333C58.2036 50 59.5178 49.4147 60.4867 48.3728C61.4557 47.3309 62 45.9179 62 44.4444V30.5556C62 29.0821 61.4557 27.6691 60.4867 26.6272C59.5178 25.5853 58.2036 25 56.8333 25Z" fill="#00A4F4"/>
</svg>
