<svg width="20" height="20" viewBox="0 0 20 20" fill="none" xmlns="http://www.w3.org/2000/svg">
<path d="M10 20C11.3135 20.0017 12.6143 19.7438 13.8278 19.2411C15.0413 18.7385 16.1435 18.001 17.071 17.071C18.001 16.1435 18.7385 15.0413 19.2411 13.8278C19.7438 12.6143 20.0017 11.3135 20 10C20.0017 8.68654 19.7438 7.38569 19.2411 6.17222C18.7385 4.95874 18.001 3.85656 17.071 2.92901C16.1435 1.99902 15.0413 1.26151 13.8278 0.75885C12.6143 0.256194 11.3135 -0.00169347 10 8.36827e-06C8.68654 -0.00166607 7.38569 0.256234 6.17222 0.758889C4.95874 1.26154 3.85656 1.99904 2.92901 2.92901C1.99904 3.85656 1.26154 4.95874 0.758889 6.17222C0.256234 7.38569 -0.00166607 8.68654 8.36827e-06 10C-0.00169347 11.3135 0.256194 12.6143 0.75885 13.8278C1.26151 15.0413 1.99902 16.1435 2.92901 17.071C3.85656 18.001 4.95874 18.7385 6.17222 19.2411C7.38569 19.7438 8.68654 20.0017 10 20Z" fill="white"/>
<path d="M6 10L9 13L15 7" stroke="#00A4F4" stroke-width="2" stroke-linecap="round" stroke-linejoin="round"/>
</svg>
